<svg width="13" height="13" viewBox="0 0 13 13" fill="none" xmlns="http://www.w3.org/2000/svg">
<path fill-rule="evenodd" clip-rule="evenodd" d="M2.34398 9.5025C1.38079 9.5025 0.599976 10.2833 0.599976 11.2465C0.599976 12.2097 1.38079 12.9905 2.34398 12.9905C3.30716 12.9905 4.08798 12.2097 4.08798 11.2465C4.08798 10.2833 3.30716 9.5025 2.34398 9.5025ZM1.87198 5.1745C1.19998 5.0625 0.599976 5.6145 0.599976 6.2945C0.599976 6.8625 1.02398 7.3185 1.58398 7.4145C3.91998 7.8225 5.75998 9.6705 6.17598 12.0065C6.27198 12.5665 6.72798 12.9905 7.29598 12.9905C7.97598 12.9905 8.52798 12.3905 8.42398 11.7185C7.87998 8.3585 5.23198 5.7105 1.87198 5.1745ZM1.84798 0.606497C1.18398 0.534497 0.599976 1.0705 0.599976 1.7345C0.599976 2.3185 1.03998 2.7985 1.61598 2.8545C6.42398 3.3345 10.248 7.1585 10.728 11.9665C10.784 12.5505 11.264 12.9905 11.848 12.9905C12.52 12.9905 13.048 12.4065 12.984 11.7425C12.4 5.8705 7.72797 1.1905 1.84798 0.606497Z" fill="white"/>
</svg>
