<svg width="16" height="17" viewBox="0 0 16 17" fill="none" xmlns="http://www.w3.org/2000/svg">
<path fill-rule="evenodd" clip-rule="evenodd" d="M2.40005 8.194V11.394C2.40005 12.058 2.93605 12.594 3.60005 12.594C4.26405 12.594 4.80005 12.058 4.80005 11.394V8.194C4.80005 7.53 4.26405 6.994 3.60005 6.994C2.93605 6.994 2.40005 7.53 2.40005 8.194ZM7.20005 8.194V11.394C7.20005 12.058 7.73605 12.594 8.40005 12.594C9.06405 12.594 9.60005 12.058 9.60005 11.394V8.194C9.60005 7.53 9.06405 6.994 8.40005 6.994C7.73605 6.994 7.20005 7.53 7.20005 8.194ZM2.00005 16.594H14.8C15.464 16.594 16 16.058 16 15.394C16 14.73 15.464 14.194 14.8 14.194H2.00005C1.33605 14.194 0.800049 14.73 0.800049 15.394C0.800049 16.058 1.33605 16.594 2.00005 16.594ZM12 8.194V11.394C12 12.058 12.536 12.594 13.2 12.594C13.864 12.594 14.4 12.058 14.4 11.394V8.194C14.4 7.53 13.864 6.994 13.2 6.994C12.536 6.994 12 7.53 12 8.194ZM7.65605 0.186L1.33605 3.514C1.00805 3.682 0.800049 4.026 0.800049 4.394C0.800049 4.946 1.24805 5.394 1.80005 5.394H15.008C15.552 5.394 16 4.946 16 4.394C16 4.026 15.792 3.682 15.464 3.514L9.14405 0.186C8.68005 -0.062 8.12005 -0.062 7.65605 0.186Z" fill="white"/>
</svg>
