<svg width="17" height="15" viewBox="0 0 17 15" fill="none" xmlns="http://www.w3.org/2000/svg">
<path fill-rule="evenodd" clip-rule="evenodd" d="M15.1667 0.833313H1.83335C0.916687 0.833313 0.17502 1.58331 0.17502 2.49998L0.166687 12.5C0.166687 13.4166 0.916687 14.1666 1.83335 14.1666H15.1667C16.0834 14.1666 16.8334 13.4166 16.8334 12.5V2.49998C16.8334 1.58331 16.0834 0.833313 15.1667 0.833313ZM14.8334 4.37498L8.94169 8.05831C8.67502 8.22498 8.32502 8.22498 8.05835 8.05831L2.16669 4.37498C1.95835 4.24165 1.83335 4.01665 1.83335 3.77498C1.83335 3.21665 2.44169 2.88331 2.91669 3.17498L8.50002 6.66665L14.0834 3.17498C14.5584 2.88331 15.1667 3.21665 15.1667 3.77498C15.1667 4.01665 15.0417 4.24165 14.8334 4.37498Z" fill="white"/>
</svg>
