<svg width="16" height="16" viewBox="0 0 16 16" fill="none" xmlns="http://www.w3.org/2000/svg">
<path fill-rule="evenodd" clip-rule="evenodd" d="M14.4 4H12V2.4C12 1.512 11.288 0.799999 10.4 0.799999H5.6C4.712 0.799999 4 1.512 4 2.4V4H1.6C0.712 4 0 4.712 0 5.6V14.4C0 15.288 0.712 16 1.6 16H14.4C15.288 16 16 15.288 16 14.4V5.6C16 4.712 15.288 4 14.4 4ZM5.6 2.4H10.4V4H5.6V2.4ZM14.4 14.4H1.6V12.8H14.4V14.4ZM14.4 10.4H1.6V6.4C1.6 5.96 1.96 5.6 2.4 5.6H4V6.4C4 6.84 4.36 7.2 4.8 7.2C5.24 7.2 5.6 6.84 5.6 6.4V5.6H10.4V6.4C10.4 6.84 10.76 7.2 11.2 7.2C11.64 7.2 12 6.84 12 6.4V5.6H13.6C14.04 5.6 14.4 5.96 14.4 6.4V10.4Z" fill="white"/>
</svg>
