<svg width="16" height="14" viewBox="0 0 16 14" fill="none" xmlns="http://www.w3.org/2000/svg">
<path fill-rule="evenodd" clip-rule="evenodd" d="M14.528 3.64C14.456 3.272 14.128 3 13.744 3H2.25605C1.87205 3 1.54405 3.272 1.47205 3.64L0.800049 7V7.8C0.800049 8.24 1.16005 8.6 1.60005 8.6V12.6C1.60005 13.04 1.96005 13.4 2.40005 13.4H8.80005C9.24005 13.4 9.60005 13.04 9.60005 12.6V8.6H12.8V12.6C12.8 13.04 13.16 13.4 13.6 13.4C14.04 13.4 14.4 13.04 14.4 12.6V8.6C14.84 8.6 15.2 8.24 15.2 7.8V7L14.528 3.64ZM8.00005 11.8H3.20005V8.6H8.00005V11.8ZM2.40005 2.2H13.6C14.04 2.2 14.4 1.84 14.4 1.4C14.4 0.959998 14.04 0.599998 13.6 0.599998H2.40005C1.96005 0.599998 1.60005 0.959998 1.60005 1.4C1.60005 1.84 1.96005 2.2 2.40005 2.2Z" fill="white"/>
</svg>
