<svg width="17" height="17" viewBox="0 0 17 17" fill="none" xmlns="http://www.w3.org/2000/svg">
<path fill-rule="evenodd" clip-rule="evenodd" d="M8.50002 0.166687C3.90002 0.166687 0.166687 3.90002 0.166687 8.50002C0.166687 13.1 3.90002 16.8334 8.50002 16.8334C13.1 16.8334 16.8334 13.1 16.8334 8.50002C16.8334 3.90002 13.1 0.166687 8.50002 0.166687ZM7.66669 15.1084C4.37502 14.7 1.83335 11.9 1.83335 8.50002C1.83335 7.98335 1.90002 7.49169 2.00835 7.00835L6.00002 11V11.8334C6.00002 12.75 6.75002 13.5 7.66669 13.5V15.1084ZM13.4167 12.9917C13.2 12.3167 12.5834 11.8334 11.8334 11.8334H11V9.33335C11 8.87502 10.625 8.50002 10.1667 8.50002H5.16669V6.83335H6.83335C7.29169 6.83335 7.66669 6.45835 7.66669 6.00002V4.33335H9.33335C10.25 4.33335 11 3.58335 11 2.66669V2.32502C13.4417 3.31669 15.1667 5.70835 15.1667 8.50002C15.1667 10.2334 14.5 11.8084 13.4167 12.9917Z" fill="white"/>
</svg>
