<svg width="16" height="16" viewBox="0 0 16 16" fill="none" xmlns="http://www.w3.org/2000/svg">
<path fill-rule="evenodd" clip-rule="evenodd" d="M13.6 1.6H10.256C9.92005 0.672 9.04005 0 8.00005 0C6.96005 0 6.08005 0.672 5.74405 1.6H2.40005C1.52005 1.6 0.800049 2.32 0.800049 3.2V14.4C0.800049 15.28 1.52005 16 2.40005 16H13.6C14.48 16 15.2 15.28 15.2 14.4V3.2C15.2 2.32 14.48 1.6 13.6 1.6ZM8.00005 1.6C8.44005 1.6 8.80005 1.96 8.80005 2.4C8.80005 2.84 8.44005 3.2 8.00005 3.2C7.56005 3.2 7.20005 2.84 7.20005 2.4C7.20005 1.96 7.56005 1.6 8.00005 1.6ZM8.80005 12.8H4.80005C4.36005 12.8 4.00005 12.44 4.00005 12C4.00005 11.56 4.36005 11.2 4.80005 11.2H8.80005C9.24005 11.2 9.60005 11.56 9.60005 12C9.60005 12.44 9.24005 12.8 8.80005 12.8ZM11.2 9.6H4.80005C4.36005 9.6 4.00005 9.24 4.00005 8.8C4.00005 8.36 4.36005 8 4.80005 8H11.2C11.64 8 12 8.36 12 8.8C12 9.24 11.64 9.6 11.2 9.6ZM11.2 6.4H4.80005C4.36005 6.4 4.00005 6.04 4.00005 5.6C4.00005 5.16 4.36005 4.8 4.80005 4.8H11.2C11.64 4.8 12 5.16 12 5.6C12 6.04 11.64 6.4 11.2 6.4Z" fill="white"/>
</svg>
